<svg xmlns="http://www.w3.org/2000/svg" viewBox="0 0 56 56" focusable="false"><defs><clipPath id="a"><path d="M36 18.5A17.5 17.5 0 1018.5 36c.56 0 1.11 0 1.65-.08l15.77-15.77c0-.54.08-1.09.08-1.65" fill="none" clip-rule="evenodd"/></clipPath><clipPath id="b"><path d="M18.82 17.37c-1.56 0-2.72-.81-2.72-1.54s1.16-1.55 2.72-1.55 2.72.82 2.72 1.55a1.16 1.16 0 102.32 0c0-1.86-1.63-3.38-3.88-3.77V10.8a1.16 1.16 0 10-2.32 0v1.26c-2.25.39-3.88 1.91-3.88 3.77 0 2.16 2.21 3.86 5 3.86.29 0 2.72.82 2.72 1.55s-1.17 1.55-2.72 1.55-2.68-.79-2.68-1.55a1.16 1.16 0 00-2.32 0c0 1.86 1.63 3.37 3.88 3.77v1.26a1.16 1.16 0 102.32 0V25c2.25-.4 3.88-1.91 3.88-3.77 0-2.17-2.22-3.87-5-3.87" fill="none" clip-rule="evenodd"/></clipPath><clipPath id="c"><path fill="none" clip-rule="evenodd" d="M37 52.76l-4.82 2.15-3.1-4.27-5.26-.54-.54-5.24L19 41.77l2.16-4.82-2.16-4.8 4.28-3.1.54-5.24 5.26-.54 3.1-4.27L37 21.16 41.82 19l3.1 4.27 5.26.54.54 5.24 4.28 3.1-2.16 4.8L55 41.77l-4.28 3.09-.54 5.24-5.26.54-3.1 4.27L37 52.76z"/></clipPath><clipPath id="d"><path d="M48 40h-4.15v-6H48v1h-2.62v1.31h2.43v1h-2.43V39H48zm-5.65 0H38.2v-6h4.15v1h-2.63v1.31h2.44v1h-2.44V39h2.63zm-9.29-2.3V40h-1.52v-6h2.09a4.22 4.22 0 012.17.44 1.52 1.52 0 01.71 1.36 1.44 1.44 0 01-.35.94 2.38 2.38 0 01-1 .65c1.09 1.35 1.84 2.22 2.13 2.61h-1.7l-1.72-2.3zm0-1h.49a2.2 2.2 0 001.07-.2.69.69 0 00.35-.63.62.62 0 00-.36-.6 2.45 2.45 0 00-1.08-.18h-.47zM27.5 40H26v-6h4.13v1h-2.62v1.54H30v1h-2.49V40z" fill="none" clip-rule="evenodd"/></clipPath></defs><g clip-path="url(#a)"><path fill="#fbd88e" d="M-2.57-2.57h42.14v42.14H-2.57z"/></g><path d="M18.5 37A18.5 18.5 0 1137 18.5c0 .56 0 1.14-.08 1.74v.36L20.6 36.88h-.36c-.59.12-1.18.12-1.74.12zm0-35a16.5 16.5 0 000 33h1.2L35 19.7v-1.2A16.52 16.52 0 0018.5 2z" fill="#7e94aa"/><g clip-path="url(#b)"><path fill="#d8ab50" d="M10.21 6.07h17.22V31H10.21z"/></g><path d="M18.5 33A14.5 14.5 0 1133 18.5 14.51 14.51 0 0118.5 33zm0-27A12.5 12.5 0 1031 18.5 12.52 12.52 0 0018.5 6z" fill="#d8ab50"/><g clip-path="url(#c)"><path fill="#cbe87c" d="M15.54 15.55h42.92v42.82H15.54z"/></g><g clip-path="url(#d)"><path fill="#7e94aa" d="M22.4 31h29.21v12.01H22.4z"/></g><path d="M42.15 56L37 53.85 32 56l-3.43-4.4-5.66-.6-.58-5.61-4.58-3.3L20.06 37l-2.31-5.15 4.58-3.3.58-5.61 5.62-.58 3.32-4.56L37 20.06l5.15-2.3 3.32 4.56 5.62.58.58 5.61 4.33 3.3L53.94 37 56 42.1l-4.33 3.3-.58 5.6-5.62.58zM37 51.66l4.49 1.85 2.88-3.82 4.9-.5.5-4.88 3.74-2.88L51.74 37l1.77-4.48-3.74-2.92-.5-4.88-4.9-.5-2.88-4-4.49 2-4.49-2-2.88 4-4.9.5-.5 4.88-4 2.88 2 4.48-2 4.47 4 2.88.5 4.88 4.9.5 3 3.81z" fill="#7e94aa"/><circle cx="37" cy="26" r="1" fill="#7e94aa"/></svg>