<svg viewBox="0 0 54 54" xmlns="http://www.w3.org/2000/svg" xmlns:xlink="http://www.w3.org/1999/xlink" focusable="false"><defs><path id="a" d="M0 54h54V0H0z"/></defs><g fill="none" fill-rule="evenodd"><path d="M53 14H1V8.135C1 4.211 4.211 1 8.135 1h37.73C49.789 1 53 4.211 53 8.135V14z" fill="#CBE87C"/><path d="M53 14H1V8.135C1 4.211 4.211 1 8.135 1h37.73C49.789 1 53 4.211 53 8.135V14z" stroke="#7E94AA" stroke-width="2"/><path d="M1 14h52v31.865C53 49.789 49.789 53 45.865 53H8.135C4.211 53 1 49.789 1 45.865V14z" fill="#ECF5FE"/><path d="M1 14h52v31.865C53 49.789 49.789 53 45.865 53H8.135C4.211 53 1 49.789 1 45.865V14z" stroke="#7E94AA" stroke-width="2"/><path d="M1 23h51M2 33h51M2 43h51M35 14l.101 39M17.9 14l.1 39" stroke="#7E94AA" stroke-width="2" opacity=".304"/><mask id="b" fill="#fff"><use xmlns:xlink="http://www.w3.org/1999/xlink" xlink:href="#a"/></mask><path fill="#FFF" mask="url(#b)" d="M35 33h18V23H35z"/><path stroke="#7E94AA" stroke-width="2" mask="url(#b)" d="M35 33h18V23H35z"/></g></svg>