<svg viewBox="0 0 51 51" xmlns="http://www.w3.org/2000/svg" focusable="false"><g fill="none" fill-rule="evenodd"><path d="M50 25.5C50 11.969 39.031 1 25.5 1S1 11.969 1 25.5 11.969 50 25.5 50c.78 0 1.549-.04 2.31-.112L49.888 27.81c.071-.761.112-1.531.112-2.31" fill="#FBD88E"/><path d="M50 25.5C50 11.969 39.031 1 25.5 1S1 11.969 1 25.5 11.969 50 25.5 50c.78 0 1.549-.04 2.31-.112L49.888 27.81c.071-.761.112-1.531.112-2.31z" stroke="#7E94AA" stroke-width="2"/><path d="M13.855 42.069a20.206 20.206 0 007.039 3.155 20.397 20.397 0 006.515.434m17.815-24.762a20.124 20.124 0 00-2.236-5.612C39.474 9.281 32.958 5.25 25.5 5.25c-11.184 0-20.25 9.066-20.25 20.25 0 5.336 2.063 10.19 5.436 13.807M45.658 27.41c.059-.63.092-1.266.092-1.91" stroke="#D8AB50" stroke-width="2"/><path d="M27.922 49.888L50 27.81c-11.686 1.093-20.984 10.392-22.078 22.078" fill="#FFF"/><path d="M27.922 49.888L50 27.81c-11.686 1.093-20.984 10.392-22.078 22.078z" stroke="#7E94AA" stroke-width="2" stroke-linecap="round" stroke-linejoin="round"/><path d="M25.948 23.923c-2.177 0-3.804-1.143-3.804-2.166 0-1.022 1.627-2.165 3.804-2.165 2.177 0 3.804 1.143 3.804 2.165a1.625 1.625 0 103.248 0c0-2.605-2.282-4.72-5.428-5.27v-1.768a1.625 1.625 0 10-3.248 0v1.768c-3.146.55-5.428 2.665-5.428 5.27 0 3.036 3.097 5.415 7.052 5.415.413 0 3.804 1.143 3.804 2.165 0 1.023-1.627 2.166-3.804 2.166-2.177 0-3.804-1.143-3.804-2.166a1.625 1.625 0 00-3.248 0c0 2.605 2.282 4.72 5.428 5.27v1.769a1.624 1.624 0 103.248 0v-1.768c3.146-.55 5.428-2.666 5.428-5.271 0-3.036-3.097-5.414-7.052-5.414" fill="#D8AB50"/></g></svg>