<svg viewBox="0 0 55 55" xmlns="http://www.w3.org/2000/svg" focusable="false"><g fill="none" fill-rule="evenodd"><path fill="#CBE87C" d="M27.245 50.125l-6.964 3.12-4.476-6.184-7.596-.78-.78-7.596-6.184-4.476 3.12-6.964-3.12-6.964 6.184-4.476.78-7.596 7.596-.78 4.476-6.184 6.964 3.12 6.964-3.12 4.476 6.184 7.596.78.78 7.596 6.184 4.476-3.12 6.964 3.12 6.964-6.184 4.476-.78 7.596-7.596.78-4.476 6.184z"/><path stroke="#7E94AA" stroke-width="2" d="M27.245 50.125l-6.964 3.12-4.476-6.184-7.596-.78-.78-7.596-6.184-4.476 3.12-6.964-3.12-6.964 6.184-4.476.78-7.596 7.596-.78 4.476-6.184 6.964 3.12 6.964-3.12 4.476 6.184 7.596.78.78 7.596 6.184 4.476-3.12 6.964 3.12 6.964-6.184 4.476-.78 7.596-7.596.78-4.476 6.184z"/><path d="M13.325 33.235h-2.08v-9.99h5.73v1.74h-3.64v2.58h3.39v1.73h-3.39v3.94h-.01zm7.72-5.56h.68c.67 0 1.17-.11 1.48-.33.31-.22.48-.57.48-1.05 0-.47-.16-.81-.49-1.01-.33-.2-.83-.3-1.51-.3h-.64v2.69zm0 1.73v3.83h-2.12v-9.99h2.91c1.36 0 2.36.25 3.01.74.65.49.98 1.25.98 2.25 0 .59-.16 1.11-.49 1.57-.33.46-.78.82-1.37 1.08 1.5 2.25 2.48 3.7 2.94 4.35h-2.35l-2.39-3.83h-1.12zm12.88 3.83h-5.76v-9.99h5.76v1.74h-3.64v2.19h3.38v1.74h-3.38v2.58h3.64v1.74zm7.84 0h-5.76v-9.99h5.76v1.74h-3.64v2.19h3.38v1.74h-3.38v2.58h3.64v1.74z" fill="#7E94AA"/><path d="M26.245 9.245a1 1 0 102 0 1 1 0 00-2 0z" stroke="#7E94AA" stroke-width="2"/></g></svg>