<svg xmlns="http://www.w3.org/2000/svg" viewBox="0 0 56 56"><path fill-rule="evenodd" clip-rule="evenodd" fill="#453127" d="M28.01 54.99c.51-.21 12.66-5.48 16.48-8.62 3.99-3.28 6.1-7.99 6.1-13.61V6.32l-.32-.17C40.53.89 28.5 1.23 27.99 1.25c-.47-.02-12.5-.36-22.23 4.89l-.32.18v26.46c0 5.62 2.11 10.33 6.1 13.61 3.82 3.13 15.96 8.39 16.47 8.6"/><path fill-rule="evenodd" clip-rule="evenodd" fill="#F2B726" d="M28 55.48s-12.87-5.56-16.84-8.82C7 43.24 5 38.44 5 32.9V5.58C15.16.1 28 .53 28 .53S40.84.1 51 5.58V32.9c0 5.54-2 10.34-6.16 13.75C40.87 49.92 28 55.48 28 55.48zM6.83 32.9c0 5.12 1.9 9.39 5.48 12.34 3.22 2.64 12.97 7.04 15.69 8.24 2.72-1.2 12.47-5.6 15.69-8.24 3.59-2.95 5.49-7.22 5.49-12.34V5.97C35.6 4.71 19.54 5.48 6.83 17.16V32.9z"/><path fill-rule="evenodd" clip-rule="evenodd" fill="#F2B726" d="M40.98 29.12c1.79 1.05 2.5 1.74 2.53 3.02.04 1.42-.94 2.27-2.43 2.26-1.29-.01-2.84-.73-3.88-1.65v3.74c1.27.76 2.86 1.26 4.46 1.26 4.01 0 5.8-2.84 5.88-5.44.08-2.37-.58-4.17-3.97-6.16-1.51-.89-2.71-1.47-2.67-2.96.04-1.44 1.24-1.95 2.38-1.94 1.42.01 2.79.8 3.63 1.67v-3.54c-.71-.55-2.22-1.39-4.45-1.32-2.67.08-5.46 2.01-5.44 5.3.02 2.17.62 3.79 3.96 5.76M27.2 37.45c.4.12.99.23 1.82.23 4.5 0 7.09-4.06 7.09-10 0-5.92-2.66-9.61-7.5-9.61-2.21 0-4 .5-5.46 1.45v26.49h4.06v-8.56zm0-15.81c.33-.16.89-.29 1.44-.29 2.35 0 3.33 1.88 3.33 6.44 0 4.44-1.12 6.59-3.45 6.59-.54 0-1.03-.14-1.31-.25V21.64zM14.95 37.75c2.48 0 4.56-.57 6.11-1.63V18.48h-4.05V33.8c-.44.3-1.09.5-1.92.5-1.86 0-2.13-1.71-2.13-2.86V18.48H8.9v12.78c0 4.31 2.03 6.49 6.05 6.49"/></svg>