<svg xmlns="http://www.w3.org/2000/svg" viewBox="0 0 512 512"><path fill="#FDCA2E" d="M512 472c0 22.1-17.9 40-40 40H40c-22.1 0-40-17.9-40-40V40C0 17.9 17.9 0 40 0h432c22.1 0 40 17.9 40 40v432z"/><path fill="#D0131D" d="M198.9 268.2c4.5-9.1 8.3-17 10-20.4 8.1-16.3-.3-39.1-28.3-39.1h-92L72.7 241h85.8c6.7 0 9.1 1.4 7.1 5.6-2 4.1-6.2 12.7-7.4 15.1-1.4 2.9-2.1 6.5 2.4 6.5h38.3z"/><path fill="#D0131D" d="M141.6 271.3c-4.5 0-4.9-3-3.8-5.3.9-1.9 6.9-14.1 8.1-16.4 1.4-2.9 1-5.9-5.9-5.9h-38.9l-29.3 59.6H149c21.1 0 36.4-7.6 46.9-28.9.5-1 1-2.1 1.5-3.1h-55.8zm64.7 0l-15.7 32h47.9l15.8-32h-48zm67.4 0l-15.7 32h47.9l15.8-32h-48zm49.5-3.1l29.2-59.5h-47.9L288.7 241h-19.6l15.9-32.3h-48l-29.1 59.5h115.3zm41.4-59.5h48l-29.3 59.5h-47.9l29.2-59.5zm-30.7 62.6h107.3l-15.7 32h-79.1c-16.5 0-21.8-12.6-15.9-24.8.5-1.4 3.4-7.2 3.4-7.2zm-253.9 0l-4.6 9.4H0v-9.4h80zm-5.5 11.2l-4.7 9.5H0v-9.5h74.5zm-5.6 11.4l-4.7 9.4H0v-9.4h68.9zM512 280.7h-68.8l4.6-9.4H512zm0 11.3h-74.4l4.6-9.5H512zm0 11.3h-80l4.7-9.4H512z"/></svg>