<svg id="SvgjsSvg1001" width="288" height="288" xmlns="http://www.w3.org/2000/svg" version="1.1" xmlns:xlink="http://www.w3.org/1999/xlink" xmlns:svgjs="http://svgjs.com/svgjs"><defs id="SvgjsDefs1002"></defs><g id="SvgjsG1008" transform="matrix(1,0,0,1,0,0)"><svg xmlns="http://www.w3.org/2000/svg" fill="currentColor" viewBox="0 0 56 56" width="288" height="288"><path d="M14 22c0-.55-.45-1-1.01-1H4c-.56 0-1 .45-1 1s.45 1 1 1h8.99c.56 0 1.01-.45 1.01-1zM14 17c0-.55-.45-1-1.01-1H1c-.56 0-1 .45-1 1s.45 1 1 1h11.99c.56 0 1.01-.45 1.01-1z" fill="#036dff" class="color000 svgShape"></path><path d="M55.99 28.94v-.01c-.02-.53-.25-1.01-.6-1.36l-6.03-10.81c-.53-.97-1.87-1.76-2.98-1.76H37v-4.99C37 8.9 36.1 8 35 8H7c-1.11 0-2 .9-2 2.01V14h2v-4s28 0 28 .01V41H21.9c-.48-2.84-2.93-5-5.9-5s-5.42 2.16-5.9 4.99H7.01V25H5v15.99C5 42.1 5.9 43 7 43h3.09c.48 2.84 2.93 5 5.9 5s5.43-2.16 5.9-5h18.2c.48 2.84 2.94 5 5.91 5s5.43-2.16 5.91-5H54c1.1 0 2-.89 2-1.99V28.99c0-.02 0-.03-.01-.05zM15.99 46c-2.2 0-3.99-1.79-3.99-4s1.79-4 3.99-4 3.99 1.79 3.99 4-1.78 4-3.99 4zM37 17h9.38c.38 0 1.05.39 1.23.72L52.78 27H37V17zm9 29c-2.21 0-4-1.79-4-4s1.79-4 4-4 4 1.79 4 4-1.79 4-4 4zm8-5h-2.09c-.48-2.84-2.94-5-5.91-5s-5.43 2.16-5.91 5H37V29h17v12z" fill="#036dff" class="color000 svgShape"></path></svg></g></svg>