<?xml version="1.0" encoding="utf-8"?>
<!-- Generator: Adobe Illustrator 26.0.0, SVG Export Plug-In . SVG Version: 6.00 Build 0)  -->
<svg version="1.1" id="Layer_1" xmlns="http://www.w3.org/2000/svg" xmlns:xlink="http://www.w3.org/1999/xlink" x="0px" y="0px"
	 viewBox="0 0 347.59 211.81" style="enable-background:new 0 0 347.59 211.81;" xml:space="preserve">
<style type="text/css">
	.st0{fill:#006BFF;}
	.st1{fill:#4A9CFF;}
	.st2{fill:#ED2020;}
</style>
<g>
	<g>
		<path class="st0" d="M60.7,202.25c-5.06,0-9.28-1.69-12.66-5.06c-3.37-3.37-5.06-7.49-5.06-12.34c0-4.85,1.71-8.97,5.13-12.37
			c3.41-3.4,7.65-5.09,12.72-5.09s9.29,1.69,12.69,5.06c3.39,3.38,5.09,7.51,5.09,12.4c0,4.81-1.71,8.91-5.12,12.31
			C70.06,200.56,65.8,202.25,60.7,202.25z M60.82,195.61c3.04,0,5.48-1.03,7.34-3.1c1.86-2.07,2.79-4.62,2.79-7.66
			c0-2.99-0.97-5.54-2.91-7.62c-1.94-2.09-4.39-3.13-7.34-3.13c-3,0-5.42,1.03-7.28,3.1c-1.86,2.07-2.78,4.62-2.78,7.66
			c0,2.95,0.97,5.48,2.91,7.59C55.49,194.56,57.91,195.61,60.82,195.61z"/>
		<path class="st0" d="M324.97,211.81c-1.57,0-3.09-0.21-4.57-0.64c-1.85-0.54-2.79-2.6-1.99-4.35l0,0c0.63-1.37,2.15-2.16,3.6-1.76
			c0.73,0.2,1.44,0.3,2.13,0.3c1.1,0,2-0.29,2.72-0.85c0.72-0.57,1.39-1.57,2.02-3.01l-11.77-28.24c-1.02-2.46,0.78-5.17,3.44-5.17
			l0,0c1.55,0,2.93,0.95,3.48,2.4l7.27,19.01c0.44,1.16,2.09,1.13,2.5-0.04l6.61-18.91c0.52-1.48,1.91-2.46,3.47-2.46l0,0
			c2.58,0,4.36,2.59,3.43,5l-11.35,29.35c-1.35,3.42-2.85,5.83-4.49,7.24C329.84,211.1,327.67,211.81,324.97,211.81z"/>
		<path class="st0" d="M116.93,167.67c-4.13,0-7.81,1.9-10.38,4.88c-2.58-2.98-6.26-4.88-10.39-4.88c-2.43,0-4.69,0.71-6.69,1.85
			l0,0c0-0.79-0.64-1.42-1.42-1.42H85c-1.62,0-2.94,1.32-2.94,2.94v27.1c0,2.04,1.66,3.7,3.7,3.7h0c2.04,0,3.7-1.66,3.7-3.7l0-15.69
			h0c0-4.07,3-7.38,6.69-7.38c3.69,0,6.69,3.31,6.69,7.38v15.69c0,2.04,1.66,3.7,3.7,3.7h0c2.04,0,3.7-1.66,3.7-3.7v-15.69
			c0-4.07,3-7.38,6.69-7.38c3.69,0,6.69,3.31,6.69,7.38v15.69c0,2.05,1.66,3.7,3.7,3.7h0c2.05,0,3.7-1.66,3.7-3.7v-15.69
			C131.02,174.3,124.7,167.67,116.93,167.67z"/>
		<path class="st0" d="M170.65,167.67c-4.13,0-7.81,1.9-10.38,4.88c-2.58-2.98-6.26-4.88-10.39-4.88c-2.43,0-4.69,0.71-6.69,1.85
			l0,0c0-0.79-0.64-1.42-1.42-1.42h-3.17c-1.56,0-2.82,1.26-2.82,2.82v27.23c0,2.04,1.66,3.7,3.7,3.7l0,0c2.04,0,3.7-1.66,3.7-3.7
			v-15.69h0c0-4.07,3-7.38,6.69-7.38c3.69,0,6.69,3.31,6.69,7.38v15.69c0,2.04,1.66,3.7,3.7,3.7h0c2.04,0,3.7-1.66,3.7-3.7v-15.69
			c0-4.07,3-7.38,6.69-7.38c3.69,0,6.69,3.31,6.69,7.38v15.69c0,2.05,1.66,3.7,3.7,3.7h0c2.05,0,3.7-1.66,3.7-3.7v-15.69
			C184.75,174.3,178.43,167.67,170.65,167.67z"/>
		<path class="st0" d="M235.41,169.45L235.41,169.45c0-0.9-0.73-1.63-1.63-1.63h-2.92c-1.61,0-2.92,1.31-2.92,2.92v27.37
			c0,2.06,1.67,3.73,3.73,3.73l0,0c2.06,0,3.73-1.67,3.73-3.73v-15.47c0-3.64,2.47-6.96,6.04-7.65c1.63-0.31,3.2-0.07,4.59,0.62
			c0.44,0.21,0.94-0.09,0.94-0.57v-3.53c0-2.27-1.83-4.1-4.1-4.11l-0.04,0C240.13,167.39,237.61,168.18,235.41,169.45z"/>
		<path class="st0" d="M316.21,182.49l-0.01-0.05c-0.48-3.85-2.11-7.19-4.93-10c-3.4-3.37-7.63-5.06-12.69-5.06
			c-5.06,0-9.3,1.7-12.72,5.09c-3.42,3.4-5.13,7.52-5.13,12.37c0,4.85,1.69,8.96,5.06,12.34c3.37,3.38,7.59,5.06,12.66,5.06
			c3.94,0,7.58-1.24,10.65-3.71c1.54-1.24,1.68-3.54,0.27-4.93c-1.15-1.14-2.98-1.32-4.27-0.36c-3.49,2.6-8.35,3.25-12.06,0.71
			c-0.64-0.44-1.22-0.95-1.74-1.52c-1.11-1.21-1.89-2.56-2.35-4.04c-0.17-0.54,0.23-1.1,0.8-1.1h18.71h3.48
			C314.52,187.31,316.52,185.05,316.21,182.49z M288.86,181.48c0.44-1.6,1.21-3.03,2.32-4.28c1.85-2.07,4.28-3.1,7.28-3.1
			c2.95,0,5.4,1.04,7.34,3.13c1.16,1.25,1.96,2.67,2.42,4.25H288.86z"/>
		<path class="st0" d="M223.77,182.49l-0.01-0.05c-0.48-3.85-2.11-7.19-4.93-10c-3.4-3.37-7.63-5.06-12.69-5.06
			c-5.06,0-9.3,1.7-12.72,5.09c-3.42,3.4-5.13,7.52-5.13,12.37c0,4.85,1.69,8.96,5.06,12.34c3.37,3.38,7.59,5.06,12.66,5.06
			c3.94,0,7.58-1.24,10.65-3.71c1.54-1.24,1.68-3.54,0.27-4.93c-1.15-1.14-2.98-1.32-4.27-0.36c-3.49,2.6-8.35,3.25-12.06,0.71
			c-0.64-0.44-1.22-0.95-1.74-1.52c-1.11-1.21-1.89-2.56-2.35-4.04c-0.17-0.54,0.23-1.1,0.8-1.1h18.71h3.48
			C222.09,187.31,224.08,185.05,223.77,182.49z M196.42,181.48c0.44-1.6,1.21-3.03,2.32-4.28c1.85-2.07,4.28-3.1,7.28-3.1
			c2.95,0,5.4,1.04,7.34,3.13c1.16,1.25,1.96,2.67,2.42,4.25H196.42z"/>
		<path class="st0" d="M34.65,190.31c-0.71,0-1.42,0.19-2.03,0.56c-0.52,0.31-0.94,0.74-1.4,1.13c-1.83,1.55-4.07,2.6-6.43,3.02
			c-3.25,0.59-6.66-0.1-9.46-1.83c-2.18-1.35-3.98-3.29-5.21-5.53c-0.7-1.27-1.2-2.64-1.53-4.05c0.02,0,0.04,0,0.06,0.01
			c-0.32-1.27-0.51-2.6-0.51-3.97c0-2.7,0.67-5.4,1.98-7.77c1.24-2.25,3.03-4.18,5.21-5.53c2.81-1.73,6.21-2.42,9.46-1.83
			c2.36,0.42,4.6,1.47,6.43,3.02c0.46,0.39,0.88,0.82,1.4,1.13c0.61,0.37,1.32,0.56,2.03,0.56c2.18,0,3.96-1.77,3.96-3.96
			c0-1.38-0.78-2.55-1.87-3.36c-2.73-2.02-5.86-3.52-9.2-4.23c-3.22-0.69-6.6-0.66-9.81,0.07c-2.53,0.57-4.95,1.57-7.14,2.95
			c-2.15,1.35-4.07,3.07-5.66,5.05c-1.6,1.99-2.85,4.25-3.69,6.66C0.42,174.78,0,177.27,0,179.77c0,0.97,0.09,1.92,0.21,2.85
			c0.04,0.32,0.08,0.65,0.14,0.97c0.02,0.11,0.03,0.22,0.05,0.33c0,0,0.01,0,0.01,0c0.2,1.08,0.47,2.15,0.83,3.2
			c0.84,2.41,2.09,4.67,3.69,6.66c1.59,1.98,3.51,3.7,5.66,5.05c2.19,1.38,4.62,2.38,7.14,2.95c3.21,0.72,6.59,0.75,9.81,0.07
			c3.34-0.71,6.47-2.2,9.2-4.23c1.09-0.81,1.87-1.98,1.87-3.36C38.61,192.08,36.84,190.31,34.65,190.31z"/>
		<path class="st0" d="M274.8,191.9c-0.67,0-1.32,0.18-1.89,0.52c-0.34,0.21-0.62,0.45-0.88,0.69l-0.25,0.22
			c-1.25,1.06-2.77,1.78-4.4,2.07c-2.18,0.39-4.54-0.06-6.47-1.25c-1.48-0.92-2.72-2.23-3.59-3.82c-0.29-0.53-0.54-1.1-0.74-1.69
			l0.01,0l-0.28-1.13c-0.23-0.93-0.35-1.85-0.35-2.76c0-1.9,0.47-3.76,1.37-5.39c0.87-1.58,2.11-2.9,3.59-3.82
			c1.93-1.19,4.29-1.65,6.47-1.25c1.63,0.29,3.15,1.01,4.4,2.07l0.25,0.22c0.27,0.24,0.54,0.48,0.88,0.69
			c0.57,0.34,1.22,0.52,1.89,0.52c2.03,0,3.68-1.65,3.68-3.68c0-1.17-0.62-2.29-1.69-3.09c-2.17-1.61-4.62-2.73-7.1-3.26
			c-2.47-0.53-5.09-0.51-7.58,0.05c-1.96,0.44-3.82,1.21-5.52,2.28c-1.67,1.05-3.14,2.36-4.37,3.9c-1.24,1.55-2.2,3.29-2.85,5.15
			c-0.63,1.82-0.96,3.74-0.96,5.68c0,0.67,0.05,1.37,0.16,2.2c0.03,0.25,0.07,0.5,0.12,0.83c0.01,0.06,0.01,0.12,0.03,0.17
			l0.14,0.72l0.01,0c0.14,0.61,0.3,1.2,0.5,1.75c0.65,1.86,1.61,3.6,2.85,5.15c1.23,1.54,2.7,2.85,4.37,3.9
			c1.7,1.07,3.56,1.84,5.52,2.28c1.28,0.29,2.6,0.43,3.92,0.43c1.23,0,2.46-0.13,3.66-0.38c2.48-0.53,4.93-1.65,7.1-3.26
			c1.07-0.79,1.69-1.92,1.69-3.09C278.48,193.55,276.83,191.9,274.8,191.9z"/>
	</g>
	<path class="st0" d="M231.04,63.89c-0.21,0.08-0.38,0.19-0.52,0.32c-0.18,0.18-0.3,0.4-0.42,0.63c-2.21,4.36-4.47,8.69-6.74,13.01
		c-1.18,2.25-2.36,4.5-3.53,6.75c-1.85,3.56-3.66,7.15-5.4,10.77c-1.65,3.42-3.21,6.85-6.04,9.49c-4.06,3.78-10.19,4.35-15.46,4.35
		h-17.07c-0.01-0.04-0.03-0.09-0.04-0.13c-11.24-0.38-20.09-7.89-23.52-17.9c7.71,0,43.62,0,43.62,0
		c2.59-5.04,5.15-10.09,7.71-15.14c0.04-0.01,0.08-0.02,0.12-0.03c3.89-7.62,12.25-13.03,20.86-13.03
		C226.87,62.96,229.02,63.29,231.04,63.89z"/>
	<circle class="st0" cx="153.44" cy="125.87" r="11.2"/>
	<circle class="st1" cx="194.01" cy="125.87" r="11.2"/>
	<path class="st1" d="M173.8,109.2c-6.06,0-12.14,0.18-18.2,0.22c-4.52,0.03-9.25-0.11-13.16-2.65
		c-9.86-6.42-10.59-22.09-12.62-32.69c-2.26-11.81-4.53-23.63-6.79-35.45c-0.44-2.3-0.88-4.6-1.32-6.9
		c-0.36-1.88-0.43-4.42-2.13-5.65c7,0.63,13.67,4.43,18.77,9.11c1.38,1.26,2.57,2.67,3.62,4.17c0.14,0.89,0.29,1.77,0.45,2.63
		c1.28,6.81,2.56,13.61,3.84,20.42c1.15,6.14,2.3,12.27,3.46,18.4c0.63,3.35,1.23,6.93,2.2,10.35h0.4
		c3.43,10.01,12.28,17.52,23.52,17.9c0.01,0.04,0.03,0.09,0.04,0.13C175.86,109.2,173.8,109.2,173.8,109.2z"/>
	<path class="st1" d="M253.21,56.86c-0.91,4.84-6.56,6.71-10.89,6.65c-2.46-0.03-4.92-0.06-7.38-0.06c-0.45,0-1.15,0-1.86,0.05
		c-0.14,0.01-0.27,0.02-0.4,0.03c-0.43,0.04-0.84,0.1-1.21,0.22c-0.08,0.02-0.15,0.04-0.23,0.07c-0.07,0.02-0.13,0.04-0.2,0.08
		c-2.02-0.59-4.18-0.92-6.44-0.92c-8.62,0-16.97,5.4-20.86,13.03c-0.04,0.01-0.08,0.02-0.12,0.03c2.27-4.48,4.55-8.95,6.85-13.42
		c0.76-1.49,1.54-2.97,2.3-4.46c2.97-5.73,6.84-9.9,13.2-11.7c5.71-1.62,11.83-1.26,17.66-0.64
		C249.63,46.45,254.48,50.13,253.21,56.86z"/>
	<path class="st0" d="M141.95,39.37c-1.05-1.5-2.24-2.9-3.62-4.17c-5.3-4.87-11.63-8.2-18.71-9.12c-0.16-0.14-0.34-0.27-0.52-0.37
		c-0.09-0.06-0.18-0.1-0.28-0.15c-0.1-0.05-0.2-0.09-0.29-0.13c0,0-19.07-7.7-19.18-7.74c-5.12-2.07-7.45-6.92-5.05-12.16
		c0.88-1.93,2.4-3.71,4.27-4.71c2.07-1.1,4.34-0.95,6.51-0.34c4.18,1.18,8.07,3.12,12.05,4.82c3.7,1.58,7.58,2.76,11.18,4.6
		c3.88,1.98,7.22,5,9.11,8.96c0.52,1.09,0.96,2.21,1.34,3.37c0.08,0.23,0.15,0.47,0.22,0.7c0.07,0.24,0.14,0.47,0.21,0.71
		c0.07,0.24,0.13,0.47,0.2,0.71c0.06,0.24,0.13,0.48,0.19,0.72c0.1,0.39,0.19,0.78,0.28,1.18c0.05,0.22,0.1,0.43,0.14,0.65
		c0.03,0.12,0.06,0.24,0.08,0.37c0.05,0.24,0.1,0.48,0.15,0.72c0.47,2.46,0.82,4.98,1.17,7.47c0.17,1.24,0.34,2.46,0.53,3.67
		C141.92,39.21,141.93,39.28,141.95,39.37z"/>
	<path class="st2" d="M119.1,25.71c0.19,0.1,0.36,0.23,0.52,0.37h-0.01C119.45,25.95,119.28,25.82,119.1,25.71z"/>
	<path class="st0" d="M191.59,68.03c-0.76,0-1.52,0.21-2.17,0.6c-0.55,0.33-1.01,0.79-1.49,1.21c-1.95,1.65-4.35,2.77-6.86,3.23
		c-3.47,0.63-7.11-0.1-10.1-1.95c-2.33-1.44-4.25-3.51-5.57-5.91c-0.75-1.36-1.28-2.82-1.63-4.32c0.02,0,0.04,0,0.06,0.01
		c-0.34-1.36-0.54-2.77-0.54-4.24c0-2.89,0.72-5.76,2.11-8.29c1.32-2.4,3.23-4.47,5.57-5.91c3-1.85,6.63-2.58,10.1-1.95
		c2.51,0.45,4.91,1.57,6.86,3.23c0.49,0.42,0.94,0.88,1.49,1.21c0.65,0.39,1.41,0.6,2.17,0.6c2.33,0,4.22-1.89,4.22-4.22
		c0-1.47-0.84-2.72-2-3.58c-2.92-2.16-6.25-3.75-9.82-4.51c-3.44-0.73-7.04-0.7-10.47,0.07c-2.7,0.61-5.28,1.68-7.62,3.15
		c-2.3,1.44-4.35,3.27-6.04,5.39c-1.7,2.13-3.04,4.54-3.94,7.11c-0.88,2.52-1.32,5.18-1.32,7.84c0,1.04,0.09,2.05,0.22,3.05
		c0.04,0.35,0.09,0.69,0.15,1.04c0.02,0.11,0.03,0.23,0.05,0.35c0,0,0.01,0,0.01,0c0.21,1.16,0.5,2.3,0.88,3.41
		c0.89,2.57,2.24,4.99,3.94,7.11c1.7,2.12,3.75,3.95,6.04,5.39c2.34,1.47,4.93,2.54,7.62,3.15c3.43,0.77,7.03,0.8,10.47,0.07
		c3.57-0.76,6.91-2.35,9.82-4.51c1.16-0.86,2-2.11,2-3.58C195.82,69.92,193.92,68.03,191.59,68.03z"/>
</g>
</svg>
