<?xml version="1.0" encoding="utf-8"?>
<!-- Generator: Adobe Illustrator 26.0.1, SVG Export Plug-In . SVG Version: 6.00 Build 0)  -->
<svg version="1.1" id="Layer_1" xmlns="http://www.w3.org/2000/svg" xmlns:xlink="http://www.w3.org/1999/xlink" x="0px" y="0px"
	 viewBox="0 0 347.6 54.6" style="enable-background:new 0 0 347.6 54.6;" xml:space="preserve">
<style type="text/css">
	.st0{fill:#006BFF;}
</style>
<g>
	<g>
		<path class="st0" d="M60.7,45.1c-5.1,0-9.3-1.7-12.7-5.1c-3.4-3.4-5.1-7.5-5.1-12.3c0-4.8,1.7-9,5.1-12.4
			c3.4-3.4,7.6-5.1,12.7-5.1s9.3,1.7,12.7,5.1c3.4,3.4,5.1,7.5,5.1,12.4c0,4.8-1.7,8.9-5.1,12.3C70.1,43.4,65.8,45.1,60.7,45.1z
			 M60.8,38.4c3,0,5.5-1,7.3-3.1c1.9-2.1,2.8-4.6,2.8-7.7c0-3-1-5.5-2.9-7.6c-1.9-2.1-4.4-3.1-7.3-3.1c-3,0-5.4,1-7.3,3.1
			s-2.8,4.6-2.8,7.7c0,2.9,1,5.5,2.9,7.6C55.5,37.4,57.9,38.4,60.8,38.4z"/>
		<path class="st0" d="M325,54.6c-1.6,0-3.1-0.2-4.6-0.6c-1.9-0.5-2.8-2.6-2-4.3l0,0c0.6-1.4,2.1-2.2,3.6-1.8
			c0.7,0.2,1.4,0.3,2.1,0.3c1.1,0,2-0.3,2.7-0.8c0.7-0.6,1.4-1.6,2-3l-11.8-28.2c-1-2.5,0.8-5.2,3.4-5.2l0,0c1.5,0,2.9,1,3.5,2.4
			l7.3,19c0.4,1.2,2.1,1.1,2.5,0l6.6-18.9c0.5-1.5,1.9-2.5,3.5-2.5l0,0c2.6,0,4.4,2.6,3.4,5L336,45.3c-1.3,3.4-2.8,5.8-4.5,7.2
			C329.8,53.9,327.7,54.6,325,54.6z"/>
		<path class="st0" d="M116.9,10.5c-4.1,0-7.8,1.9-10.4,4.9c-2.6-3-6.3-4.9-10.4-4.9c-2.4,0-4.7,0.7-6.7,1.8l0,0
			c0-0.8-0.6-1.4-1.4-1.4h-3c-1.6,0-2.9,1.3-2.9,2.9V41c0,2,1.7,3.7,3.7,3.7l0,0c2,0,3.7-1.7,3.7-3.7V25.3l0,0c0-4.1,3-7.4,6.7-7.4
			s6.7,3.3,6.7,7.4V41c0,2,1.7,3.7,3.7,3.7l0,0c2,0,3.7-1.7,3.7-3.7V25.3c0-4.1,3-7.4,6.7-7.4s6.7,3.3,6.7,7.4V41
			c0,2.1,1.7,3.7,3.7,3.7l0,0c2,0,3.7-1.7,3.7-3.7V25.3C131,17.1,124.7,10.5,116.9,10.5z"/>
		<path class="st0" d="M170.6,10.5c-4.1,0-7.8,1.9-10.4,4.9c-2.6-3-6.3-4.9-10.4-4.9c-2.4,0-4.7,0.7-6.7,1.8l0,0
			c0-0.8-0.6-1.4-1.4-1.4h-3.2c-1.6,0-2.8,1.3-2.8,2.8V41c0,2,1.7,3.7,3.7,3.7l0,0c2,0,3.7-1.7,3.7-3.7V25.3l0,0
			c0-4.1,3-7.4,6.7-7.4s6.7,3.3,6.7,7.4V41c0,2,1.7,3.7,3.7,3.7l0,0c2,0,3.7-1.7,3.7-3.7V25.3c0-4.1,3-7.4,6.7-7.4s6.7,3.3,6.7,7.4
			V41c0,2.1,1.7,3.7,3.7,3.7l0,0c2,0,3.7-1.7,3.7-3.7V25.3C184.7,17.1,178.4,10.5,170.6,10.5z"/>
		<path class="st0" d="M235.4,12.3L235.4,12.3c0-0.9-0.7-1.6-1.6-1.6h-2.9c-1.6,0-2.9,1.3-2.9,2.9v27.4c0,2.1,1.7,3.7,3.7,3.7l0,0
			c2.1,0,3.7-1.7,3.7-3.7V25.5c0-3.6,2.5-7,6-7.7c1.6-0.3,3.2-0.1,4.6,0.6c0.4,0.2,0.9-0.1,0.9-0.6v-3.5c0-2.3-1.8-4.1-4.1-4.1h0
			C240.1,10.2,237.6,11,235.4,12.3z"/>
		<path class="st0" d="M316.2,25.3L316.2,25.3c-0.5-3.9-2.1-7.2-4.9-10.1c-3.4-3.4-7.6-5.1-12.7-5.1s-9.3,1.7-12.7,5.1
			c-3.4,3.4-5.1,7.5-5.1,12.4s1.7,9,5.1,12.3c3.4,3.4,7.6,5.1,12.7,5.1c3.9,0,7.6-1.2,10.6-3.7c1.5-1.2,1.7-3.5,0.3-4.9
			c-1.2-1.1-3-1.3-4.3-0.4c-3.5,2.6-8.3,3.2-12.1,0.7c-0.6-0.4-1.2-0.9-1.7-1.5c-1.1-1.2-1.9-2.6-2.3-4c-0.2-0.5,0.2-1.1,0.8-1.1
			h18.7h3.5C314.5,30.1,316.5,27.9,316.2,25.3z M288.8,24.3c0.4-1.6,1.2-3,2.3-4.3c1.9-2.1,4.3-3.1,7.3-3.1c3,0,5.4,1,7.3,3.1
			c1.2,1.2,2,2.7,2.4,4.3C308.2,24.3,288.8,24.3,288.8,24.3z"/>
		<path class="st0" d="M223.8,25.3L223.8,25.3c-0.5-3.9-2.1-7.2-4.9-10.1c-3.4-3.4-7.6-5.1-12.7-5.1s-9.3,1.7-12.7,5.1
			c-3.4,3.4-5.1,7.5-5.1,12.4s1.7,9,5.1,12.3c3.4,3.4,7.6,5.1,12.7,5.1c3.9,0,7.6-1.2,10.6-3.7c1.5-1.2,1.7-3.5,0.3-4.9
			c-1.1-1.1-3-1.3-4.3-0.4c-3.5,2.6-8.4,3.2-12.1,0.7c-0.6-0.4-1.2-0.9-1.7-1.5c-1.1-1.2-1.9-2.6-2.4-4c-0.2-0.5,0.2-1.1,0.8-1.1
			H216h3.5C222.1,30.1,224.1,27.9,223.8,25.3z M196.4,24.3c0.4-1.6,1.2-3,2.3-4.3c1.9-2.1,4.3-3.1,7.3-3.1c3,0,5.4,1,7.3,3.1
			c1.2,1.2,2,2.7,2.4,4.3C215.8,24.3,196.4,24.3,196.4,24.3z"/>
		<path class="st0" d="M34.6,33.1c-0.7,0-1.4,0.2-2,0.6c-0.5,0.3-0.9,0.7-1.4,1.1c-1.8,1.6-4.1,2.6-6.4,3c-3.2,0.6-6.7-0.1-9.5-1.8
			c-2.2-1.3-4-3.3-5.2-5.5c-0.7-1.3-1.2-2.6-1.5-4.1c0,0,0,0,0.1,0c-0.3-1.3-0.5-2.6-0.5-4c0-2.7,0.7-5.4,2-7.8
			c1.2-2.2,3-4.2,5.2-5.5c2.8-1.7,6.2-2.4,9.5-1.8c2.4,0.4,4.6,1.5,6.4,3c0.5,0.4,0.9,0.8,1.4,1.1c0.6,0.4,1.3,0.6,2,0.6
			c2.2,0,4-1.8,4-4c0-1.4-0.8-2.5-1.9-3.4c-2.7-2-5.9-3.5-9.2-4.2c-3.2-0.7-6.6-0.7-9.8,0.1c-2.5,0.6-4.9,1.6-7.1,3
			c-2.1,1.3-4.1,3.1-5.7,5c-1.6,2-2.9,4.2-3.7,6.7C0.4,17.6,0,20.1,0,22.6c0,1,0.1,1.9,0.2,2.8c0,0.3,0.1,0.7,0.1,1
			c0,0.1,0,0.2,0.1,0.3h0c0.2,1.1,0.5,2.2,0.8,3.2c0.8,2.4,2.1,4.7,3.7,6.7c1.6,2,3.5,3.7,5.7,5.1c2.2,1.4,4.6,2.4,7.1,2.9
			c3.2,0.7,6.6,0.8,9.8,0.1c3.3-0.7,6.5-2.2,9.2-4.2c1.1-0.8,1.9-2,1.9-3.4C38.6,34.9,36.8,33.1,34.6,33.1z"/>
		<path class="st0" d="M274.8,34.7c-0.7,0-1.3,0.2-1.9,0.5c-0.3,0.2-0.6,0.4-0.9,0.7l-0.2,0.2c-1.2,1.1-2.8,1.8-4.4,2.1
			c-2.2,0.4-4.5-0.1-6.5-1.2c-1.5-0.9-2.7-2.2-3.6-3.8c-0.3-0.5-0.5-1.1-0.7-1.7h0l-0.3-1.1c-0.2-0.9-0.3-1.8-0.3-2.8
			c0-1.9,0.5-3.8,1.4-5.4c0.9-1.6,2.1-2.9,3.6-3.8c1.9-1.2,4.3-1.7,6.5-1.2c1.6,0.3,3.1,1,4.4,2.1l0.2,0.2c0.3,0.2,0.5,0.5,0.9,0.7
			c0.6,0.3,1.2,0.5,1.9,0.5c2,0,3.7-1.7,3.7-3.7c0-1.2-0.6-2.3-1.7-3.1c-2.2-1.6-4.6-2.7-7.1-3.3c-2.5-0.5-5.1-0.5-7.6,0
			c-2,0.4-3.8,1.2-5.5,2.3c-1.7,1-3.1,2.4-4.4,3.9c-1.2,1.5-2.2,3.3-2.9,5.2c-0.6,1.8-1,3.7-1,5.7c0,0.7,0,1.4,0.2,2.2
			c0,0.2,0.1,0.5,0.1,0.8c0,0.1,0,0.1,0,0.2l0.1,0.7h0c0.1,0.6,0.3,1.2,0.5,1.8c0.6,1.9,1.6,3.6,2.9,5.2c1.2,1.5,2.7,2.8,4.4,3.9
			c1.7,1.1,3.6,1.8,5.5,2.3c1.3,0.3,2.6,0.4,3.9,0.4c1.2,0,2.5-0.1,3.7-0.4c2.5-0.5,4.9-1.7,7.1-3.3c1.1-0.8,1.7-1.9,1.7-3.1
			C278.5,36.4,276.8,34.7,274.8,34.7z"/>
	</g>
</g>
</svg>
