<?xml version="1.0" encoding="utf-8"?>
<!-- Generator: Adobe Illustrator 26.0.0, SVG Export Plug-In . SVG Version: 6.00 Build 0)  -->
<svg version="1.1" id="Layer_1" xmlns="http://www.w3.org/2000/svg" xmlns:xlink="http://www.w3.org/1999/xlink" x="0px" y="0px"
	 viewBox="0 0 160.07 137.07" style="enable-background:new 0 0 160.07 137.07;" xml:space="preserve">
<style type="text/css">
	.st0{fill:#006BFF;}
	.st1{fill:#4A9CFF;}
	.st2{fill:#ED2020;}
</style>
<g>
	<path class="st0" d="M137.7,63.89c-0.21,0.08-0.38,0.19-0.52,0.32c-0.18,0.18-0.3,0.4-0.42,0.63c-2.21,4.36-4.47,8.69-6.74,13.01
		c-1.18,2.25-2.36,4.5-3.53,6.75c-1.85,3.56-3.66,7.15-5.4,10.77c-1.65,3.42-3.21,6.85-6.04,9.49c-4.06,3.78-10.19,4.35-15.46,4.35
		H82.51c-0.01-0.04-0.03-0.09-0.04-0.13c-11.24-0.38-20.09-7.89-23.52-17.9c7.71,0,43.62,0,43.62,0c2.59-5.04,5.15-10.09,7.71-15.14
		c0.04-0.01,0.08-0.02,0.12-0.03c3.89-7.62,12.25-13.03,20.86-13.03C133.52,62.96,135.67,63.29,137.7,63.89z"/>
	<circle class="st0" cx="60.09" cy="125.87" r="11.2"/>
	<circle class="st1" cx="100.66" cy="125.87" r="11.2"/>
	<path class="st1" d="M80.45,109.2c-6.06,0-12.14,0.18-18.2,0.22c-4.52,0.03-9.25-0.11-13.16-2.65
		c-9.86-6.42-10.59-22.09-12.62-32.69c-2.26-11.81-4.53-23.63-6.79-35.45c-0.44-2.3-0.88-4.6-1.32-6.9
		c-0.36-1.88-0.43-4.42-2.13-5.65c7,0.63,13.67,4.43,18.77,9.11c1.38,1.26,2.57,2.67,3.62,4.17c0.14,0.89,0.29,1.77,0.45,2.63
		c1.28,6.81,2.56,13.61,3.84,20.42c1.15,6.14,2.3,12.27,3.46,18.4c0.63,3.35,1.23,6.93,2.2,10.35h0.4
		c3.43,10.01,12.28,17.52,23.52,17.9c0.01,0.04,0.03,0.09,0.04,0.13C82.51,109.2,80.45,109.2,80.45,109.2z"/>
	<path class="st1" d="M159.87,56.86c-0.91,4.84-6.56,6.71-10.89,6.65c-2.46-0.03-4.92-0.06-7.38-0.06c-0.45,0-1.15,0-1.86,0.05
		c-0.14,0.01-0.27,0.02-0.4,0.03c-0.43,0.04-0.84,0.1-1.21,0.22c-0.08,0.02-0.15,0.04-0.23,0.07c-0.07,0.02-0.13,0.04-0.2,0.08
		c-2.02-0.59-4.18-0.92-6.44-0.92c-8.62,0-16.97,5.4-20.86,13.03c-0.04,0.01-0.08,0.02-0.12,0.03c2.27-4.48,4.55-8.95,6.85-13.42
		c0.76-1.49,1.54-2.97,2.3-4.46c2.97-5.73,6.84-9.9,13.2-11.7c5.71-1.62,11.83-1.26,17.66-0.64
		C156.28,46.45,161.13,50.13,159.87,56.86z"/>
	<path class="st0" d="M48.6,39.37c-1.05-1.5-2.24-2.9-3.62-4.17c-5.3-4.87-11.63-8.2-18.71-9.12c-0.16-0.14-0.34-0.27-0.52-0.37
		c-0.09-0.06-0.18-0.1-0.28-0.15c-0.1-0.05-0.2-0.09-0.29-0.13c0,0-19.07-7.7-19.18-7.74c-5.12-2.07-7.45-6.92-5.05-12.16
		c0.88-1.93,2.4-3.71,4.27-4.71c2.07-1.1,4.34-0.95,6.51-0.34C15.91,1.66,19.8,3.6,23.78,5.3c3.7,1.58,7.58,2.76,11.18,4.6
		c3.88,1.98,7.22,5,9.11,8.96c0.52,1.09,0.96,2.21,1.34,3.37c0.08,0.23,0.15,0.47,0.22,0.7c0.07,0.24,0.14,0.47,0.21,0.71
		c0.07,0.24,0.13,0.47,0.2,0.71c0.06,0.24,0.13,0.48,0.19,0.72c0.1,0.39,0.19,0.78,0.28,1.18c0.05,0.22,0.1,0.43,0.14,0.65
		c0.03,0.12,0.06,0.24,0.08,0.37c0.05,0.24,0.1,0.48,0.15,0.72c0.47,2.46,0.82,4.98,1.17,7.47c0.17,1.24,0.34,2.46,0.53,3.67
		C48.57,39.21,48.59,39.28,48.6,39.37z"/>
	<path class="st2" d="M25.75,25.71c0.19,0.1,0.36,0.23,0.52,0.37h-0.01C26.1,25.95,25.93,25.82,25.75,25.71z"/>
	<path class="st0" d="M98.25,68.03c-0.76,0-1.52,0.21-2.17,0.6c-0.55,0.33-1.01,0.79-1.49,1.21c-1.95,1.65-4.35,2.77-6.86,3.23
		c-3.47,0.63-7.11-0.1-10.1-1.95c-2.33-1.44-4.25-3.51-5.57-5.91c-0.75-1.36-1.28-2.82-1.63-4.32c0.02,0,0.04,0,0.06,0.01
		c-0.34-1.36-0.54-2.77-0.54-4.24c0-2.89,0.72-5.76,2.11-8.29c1.32-2.4,3.23-4.47,5.57-5.91c3-1.85,6.63-2.58,10.1-1.95
		c2.51,0.45,4.91,1.57,6.86,3.23c0.49,0.42,0.94,0.88,1.49,1.21c0.65,0.39,1.41,0.6,2.17,0.6c2.33,0,4.22-1.89,4.22-4.22
		c0-1.47-0.84-2.72-2-3.58c-2.92-2.16-6.25-3.75-9.82-4.51c-3.44-0.73-7.04-0.7-10.47,0.07c-2.7,0.61-5.28,1.68-7.62,3.15
		c-2.3,1.44-4.35,3.27-6.04,5.39c-1.7,2.13-3.04,4.54-3.94,7.11c-0.88,2.52-1.32,5.18-1.32,7.84c0,1.04,0.09,2.05,0.22,3.05
		c0.04,0.35,0.09,0.69,0.15,1.04c0.02,0.11,0.03,0.23,0.05,0.35c0,0,0.01,0,0.01,0c0.21,1.16,0.5,2.3,0.88,3.41
		c0.89,2.57,2.24,4.99,3.94,7.11c1.7,2.12,3.75,3.95,6.04,5.39c2.34,1.47,4.93,2.54,7.62,3.15c3.43,0.77,7.03,0.8,10.47,0.07
		c3.57-0.76,6.91-2.35,9.82-4.51c1.16-0.86,2-2.11,2-3.58C102.47,69.92,100.58,68.03,98.25,68.03z"/>
</g>
</svg>
